<svg width="88" height="88" viewBox="0 0 88 88" fill="none" xmlns="http://www.w3.org/2000/svg">
<g filter="url(#filter0_d_582_3486)">
<circle cx="43.5515" cy="43.5518" r="23" stroke="#1E1C21" stroke-width="4"/>
<mask id="path-2-inside-1_582_3486" fill="white">
<path d="M67.0571 62.1925C67.4898 62.5357 68.1203 62.4639 68.4493 62.0203C72.3391 56.7767 74.4793 50.4303 74.5497 43.8848C74.6201 37.3392 72.6168 30.9483 68.8407 25.6222C68.5212 25.1717 67.8925 25.0864 67.4525 25.4202L67.3171 25.5229C66.8771 25.8566 66.7926 26.483 67.1109 26.9343C70.5967 31.8762 72.4452 37.7974 72.38 43.8614C72.3148 49.9254 70.3394 55.8056 66.7482 60.6713C66.4202 61.1157 66.4913 61.7438 66.924 62.0869L67.0571 62.1925Z"/>
</mask>
<path d="M67.0571 62.1925C67.4898 62.5357 68.1203 62.4639 68.4493 62.0203C72.3391 56.7767 74.4793 50.4303 74.5497 43.8848C74.6201 37.3392 72.6168 30.9483 68.8407 25.6222C68.5212 25.1717 67.8925 25.0864 67.4525 25.4202L67.3171 25.5229C66.8771 25.8566 66.7926 26.483 67.1109 26.9343C70.5967 31.8762 72.4452 37.7974 72.38 43.8614C72.3148 49.9254 70.3394 55.8056 66.7482 60.6713C66.4202 61.1157 66.4913 61.7438 66.924 62.0869L67.0571 62.1925Z" stroke="#1E1C21" stroke-width="4" mask="url(#path-2-inside-1_582_3486)"/>
<mask id="path-3-inside-2_582_3486" fill="white">
<path d="M24.9373 67.078C24.5946 67.5111 24.6671 68.1415 25.1111 68.4701C30.3592 72.3539 36.708 74.4868 43.2536 74.5497C49.7992 74.6126 56.1878 72.602 61.5096 68.8198C61.9598 68.4999 62.0443 67.871 61.71 67.4314L61.6072 67.2961C61.2729 66.8565 60.6464 66.7727 60.1955 67.0916C55.2576 70.583 49.3385 72.4382 43.2744 72.3799C37.2104 72.3217 31.328 70.353 26.4581 66.7674C26.0134 66.44 25.3854 66.5117 25.0427 66.9448L24.9373 67.078Z"/>
</mask>
<path d="M24.9373 67.078C24.5946 67.5111 24.6671 68.1415 25.1111 68.4701C30.3592 72.3539 36.708 74.4868 43.2536 74.5497C49.7992 74.6126 56.1878 72.602 61.5096 68.8198C61.9598 68.4999 62.0443 67.871 61.71 67.4314L61.6072 67.2961C61.2729 66.8565 60.6464 66.7727 60.1955 67.0916C55.2576 70.583 49.3385 72.4382 43.2744 72.3799C37.2104 72.3217 31.328 70.353 26.4581 66.7674C26.0134 66.44 25.3854 66.5117 25.0427 66.9448L24.9373 67.078Z" stroke="#1E1C21" stroke-width="4" mask="url(#path-3-inside-2_582_3486)"/>
<mask id="path-4-inside-3_582_3486" fill="white">
<path d="M19.3242 25.8587C18.8782 25.533 18.2511 25.6297 17.9399 26.086C14.2614 31.48 12.3749 37.9063 12.5645 44.4495C12.7541 50.9927 15.0095 57.299 18.9942 62.471C19.3313 62.9085 19.963 62.9687 20.3894 62.6177L20.5205 62.5098C20.9469 62.1588 21.0065 61.5295 20.6705 61.0912C16.9913 56.2917 14.9091 50.4485 14.7334 44.3867C14.5578 38.3249 16.2981 32.3709 19.6932 27.3664C20.0033 26.9094 19.9074 26.2846 19.4614 25.9589L19.3242 25.8587Z"/>
</mask>
<path d="M19.3242 25.8587C18.8782 25.533 18.2511 25.6297 17.9399 26.086C14.2614 31.48 12.3749 37.9063 12.5645 44.4495C12.7541 50.9927 15.0095 57.299 18.9942 62.471C19.3313 62.9085 19.963 62.9687 20.3894 62.6177L20.5205 62.5098C20.9469 62.1588 21.0065 61.5295 20.6705 61.0912C16.9913 56.2917 14.9091 50.4485 14.7334 44.3867C14.5578 38.3249 16.2981 32.3709 19.6932 27.3664C20.0033 26.9094 19.9074 26.2846 19.4614 25.9589L19.3242 25.8587Z" stroke="#1E1C21" stroke-width="4" mask="url(#path-4-inside-3_582_3486)"/>
<mask id="path-5-inside-4_582_3486" fill="white">
<path d="M61.874 19.7973C62.2113 19.36 62.1311 18.7306 61.6831 18.4076C56.3875 14.5888 50.0129 12.5343 43.467 12.5521C36.9211 12.5699 30.5578 14.6591 25.2831 18.5066C24.8369 18.8321 24.7601 19.462 25.0998 19.8975L25.2042 20.0314C25.5439 20.4669 26.1714 20.5429 26.6184 20.2185C31.5128 16.6665 37.4086 14.7384 43.4729 14.7219C49.5373 14.7054 55.4435 16.6014 60.3572 20.1267C60.8059 20.4486 61.433 20.3692 61.7703 19.9318L61.874 19.7973Z"/>
</mask>
<path d="M61.874 19.7973C62.2113 19.36 62.1311 18.7306 61.6831 18.4076C56.3875 14.5888 50.0129 12.5343 43.467 12.5521C36.9211 12.5699 30.5578 14.6591 25.2831 18.5066C24.8369 18.8321 24.7601 19.462 25.0998 19.8975L25.2042 20.0314C25.5439 20.4669 26.1714 20.5429 26.6184 20.2185C31.5128 16.6665 37.4086 14.7384 43.4729 14.7219C49.5373 14.7054 55.4435 16.6014 60.3572 20.1267C60.8059 20.4486 61.433 20.3692 61.7703 19.9318L61.874 19.7973Z" stroke="#1E1C21" stroke-width="4" mask="url(#path-5-inside-4_582_3486)"/>
</g>
<defs>
<filter id="filter0_d_582_3486" x="-8" y="-8" width="103.103" height="103.103" filterUnits="userSpaceOnUse" color-interpolation-filters="sRGB">
<feFlood flood-opacity="0" result="BackgroundImageFix"/>
<feColorMatrix in="SourceAlpha" type="matrix" values="0 0 0 0 0 0 0 0 0 0 0 0 0 0 0 0 0 0 127 0" result="hardAlpha"/>
<feOffset/>
<feGaussianBlur stdDeviation="4"/>
<feComposite in2="hardAlpha" operator="out"/>
<feColorMatrix type="matrix" values="0 0 0 0 0 0 0 0 0 0 0 0 0 0 0 0 0 0 0.5 0"/>
<feBlend mode="normal" in2="BackgroundImageFix" result="effect1_dropShadow_582_3486"/>
<feBlend mode="normal" in="SourceGraphic" in2="effect1_dropShadow_582_3486" result="shape"/>
</filter>
</defs>
</svg>
