<svg width="34" height="34" viewBox="0 0 34 34" xmlns="http://www.w3.org/2000/svg">
<path d="M17 0.333496C7.79998 0.333496 0.333313 7.80016 0.333313 17.0002C0.333313 26.2002 7.79998 33.6668 17 33.6668C26.2 33.6668 33.6666 26.2002 33.6666 17.0002C33.6666 7.80016 26.2 0.333496 17 0.333496ZM17 27.8335C15.6166 27.8335 14.5 26.7168 14.5 25.3335H19.5C19.5 26.7168 18.3833 27.8335 17 27.8335ZM25.3333 23.6668H8.66665V22.0002L10.3333 20.3335V15.9835C10.3333 12.4502 12.05 9.45016 15.3333 8.66683V7.8335C15.3333 6.8835 16.05 6.16683 17 6.16683C17.95 6.16683 18.6666 6.8835 18.6666 7.8335V8.66683C21.95 9.45016 23.6666 12.4668 23.6666 15.9835V20.3335L25.3333 22.0002V23.6668Z"/>
</svg>