<svg width="34" height="34" viewBox="0 0 34 34" xmlns="http://www.w3.org/2000/svg">
<circle cx="17" cy="17" r="17"/>
<path d="M18.2 15C17.4 14.8 16.6 14.4 16 13.8C15.4 13.6 15.2 13 15.2 12.6C15.2 12.2 15.4 11.6 15.8 11.4C16.4 11 17 10.6 17.6 10.8C18.8 10.8 19.8 11.4 20.4 12.2L22.2 9.8C21.6 9.2 21 8.8 20.4 8.4C19.8 8 19 7.8 18.2 7.8V5H15.8V7.8C14.8 8 13.8 8.6 13 9.4C12.2 10.4 11.6 11.6 11.8 12.8C11.8 14 12.2 15.2 13 16C14 17 15.4 17.6 16.6 18.2C17.2 18.4 18 18.8 18.6 19.2C19 19.6 19.2 20.2 19.2 20.8C19.2 21.4 19 22 18.6 22.6C18 23.2 17.2 23.4 16.6 23.4C15.8 23.4 14.8 23.2 14.2 22.6C13.6 22.2 13 21.6 12.6 21L10.6 23.2C11.2 24 11.8 24.6 12.6 25.2C13.6 25.8 14.8 26.4 16 26.4V29H18.2V26C19.4 25.8 20.4 25.2 21.2 24.4C22.2 23.4 22.8 21.8 22.8 20.4C22.8 19.2 22.4 17.8 21.4 17C20.4 16 19.4 15.4 18.2 15V15ZM17 1C8.2 1 1 8.2 1 17C1 25.8 8.2 33 17 33C25.8 33 33 25.8 33 17C33 8.2 25.8 1 17 1ZM17 30.8C9.4 30.8 3.2 24.6 3.2 17C3.2 9.4 9.4 3.2 17 3.2C24.6 3.2 30.8 9.4 30.8 17C30.8 24.6 24.6 30.8 17 30.8V30.8Z" fill="#F6F8FC"/>
</svg>