<svg width="16" height="17" viewBox="0 0 16 17" fill="none" xmlns="http://www.w3.org/2000/svg">
<g clip-path="url(#clip0_1754_687)">
<path d="M8 0.75708C12.4185 0.75708 16 4.33858 16 8.75708C16 13.1756 12.4185 16.7571 8 16.7571C3.5815 16.7571 0 13.1756 0 8.75708C0 4.33858 3.5815 0.75708 8 0.75708ZM9.676 3.53708C9.554 3.47708 9.432 3.53708 9.402 3.65858C9.3715 3.68908 9.3715 3.71958 9.3715 3.78008V4.20508L9.3765 4.25708C9.4026 4.35994 9.46583 4.44952 9.554 4.50858C11.931 5.35858 13.15 7.99858 12.266 10.3351C11.809 11.6101 10.8035 12.5806 9.554 13.0361C9.432 13.0966 9.3715 13.1876 9.3715 13.3396V13.7646L9.374 13.8086C9.37875 13.8566 9.39882 13.9018 9.43123 13.9375C9.46364 13.9733 9.50668 13.9977 9.554 14.0071C9.5845 14.0071 9.6455 14.0071 9.676 13.9771C10.3618 13.7629 10.9984 13.4152 11.5493 12.954C12.1001 12.4928 12.5543 11.9271 12.8857 11.2897C13.217 10.6522 13.419 9.95547 13.48 9.23962C13.541 8.52376 13.4598 7.80291 13.241 7.11858C12.693 5.38858 11.352 4.08308 9.676 3.53708ZM6.446 3.50708C6.4155 3.50708 6.3545 3.50708 6.324 3.53708C5.63821 3.75124 5.00157 4.09894 4.45071 4.56017C3.89986 5.02139 3.44568 5.58702 3.11432 6.22449C2.78297 6.86197 2.58099 7.55869 2.52 8.27454C2.45902 8.9904 2.54025 9.71125 2.759 10.3956C3.307 12.0956 4.6175 13.4006 6.324 13.9466C6.446 14.0071 6.568 13.9466 6.598 13.8251C6.6285 13.7951 6.6285 13.7641 6.6285 13.7036V13.2786L6.6235 13.2386C6.6025 13.1541 6.524 13.0576 6.446 13.0056C4.069 12.1556 2.85 9.51558 3.734 7.17908C4.191 5.90408 5.1965 4.93358 6.446 4.47808C6.568 4.41758 6.6285 4.32658 6.6285 4.17458V3.74958L6.626 3.70558C6.62125 3.65757 6.60118 3.61235 6.56877 3.57661C6.53636 3.54087 6.49332 3.51649 6.446 3.50708ZM8.2135 5.08508H7.756L7.712 5.08908C7.612 5.10908 7.539 5.19508 7.512 5.32808V6.02608L7.4085 6.04208C6.5545 6.19408 6.0195 6.78358 6.0195 7.51308C6.0195 8.51408 6.6285 8.90858 7.9085 9.06058C8.762 9.21208 9.036 9.39458 9.036 9.88008C9.036 10.3651 8.6095 10.6991 8.0305 10.6991C7.238 10.6991 6.964 10.3656 6.8725 9.91008C6.8425 9.78908 6.7505 9.72808 6.659 9.72808H6.141L6.1015 9.73158C6.0522 9.73955 6.00745 9.76511 5.97555 9.80354C5.94365 9.84196 5.92676 9.89065 5.928 9.94058V9.97058L5.9445 10.0606C6.0895 10.7726 6.5775 11.2821 7.543 11.4276V12.1561L7.547 12.2001C7.567 12.2991 7.6535 12.3721 7.787 12.3986H8.244L8.288 12.3946C8.388 12.3746 8.461 12.2886 8.488 12.1561V11.4271L8.5915 11.4071C9.448 11.2261 10.0115 10.6066 10.0115 9.81858C10.0115 8.75658 9.3715 8.39258 8.0915 8.24058C7.177 8.11908 6.9945 7.87658 6.9945 7.45158C6.9945 7.02658 7.2995 6.75358 7.9085 6.75358C8.457 6.75358 8.762 6.93558 8.914 7.39108C8.92984 7.43512 8.95879 7.47326 8.99697 7.50035C9.03514 7.52743 9.0807 7.54217 9.1275 7.54258H9.615L9.6545 7.53958C9.70398 7.53171 9.74892 7.50612 9.78093 7.46758C9.81294 7.42903 9.82985 7.38017 9.8285 7.33008V7.30008L9.81 7.21358C9.73493 6.90279 9.56376 6.62358 9.32085 6.41568C9.07794 6.20778 8.77566 6.08177 8.457 6.05558V5.32808L8.453 5.28408C8.433 5.18458 8.347 5.11158 8.2135 5.08508Z" fill="#699BF7"/>
</g>
<defs>
<clipPath id="clip0_1754_687">
<rect width="16" height="16" fill="white" transform="translate(0 0.75708)"/>
</clipPath>
</defs>
</svg>
