<svg width="34" height="34" viewBox="0 0 34 34" xmlns="http://www.w3.org/2000/svg">
<path fill-rule="evenodd" clip-rule="evenodd" d="M17 32.0002C25.2841 32.0002 32 25.2843 32 17.0002C32 8.716 25.2841 2.00016 17 2.00016C8.71581 2.00016 1.99998 8.716 1.99998 17.0002C1.99998 25.2843 8.71581 32.0002 17 32.0002ZM17 33.6668C26.205 33.6668 33.6666 26.2052 33.6666 17.0002C33.6666 7.79516 26.205 0.333496 17 0.333496C7.79498 0.333496 0.333313 7.79516 0.333313 17.0002C0.333313 26.2052 7.79498 33.6668 17 33.6668Z"/>
<path d="M7 26.692C7 25.8311 7.64333 25.1036 8.5 25.0086C14.9292 24.297 19.1 24.3611 25.515 25.0245C25.8353 25.0581 26.139 25.1843 26.3888 25.3877C26.6385 25.591 26.8237 25.8627 26.9216 26.1696C27.0196 26.4764 27.026 26.8052 26.9402 27.1156C26.8544 27.4261 26.68 27.7048 26.4383 27.9178C18.8675 34.517 14.5408 34.4261 7.53333 27.9245C7.19167 27.6078 7 27.1578 7 26.6928V26.692Z"/>
<path fill-rule="evenodd" clip-rule="evenodd" d="M25.4291 25.8526C19.065 25.1942 14.9541 25.1326 8.5908 25.8367C8.38133 25.8611 8.18823 25.9619 8.04846 26.1199C7.9087 26.2778 7.83209 26.4817 7.8333 26.6926C7.8333 26.9309 7.93246 27.1567 8.09996 27.3134C11.5733 30.5351 14.205 31.9909 16.7775 32.0001C19.3591 32.0092 22.1325 30.5651 25.8908 27.2901C26.0102 27.1838 26.0961 27.0451 26.1382 26.8909C26.1803 26.7367 26.1766 26.5736 26.1277 26.4214C26.0788 26.2692 25.9868 26.1345 25.8628 26.0337C25.7387 25.9329 25.5881 25.8702 25.4291 25.8534V25.8526ZM8.4083 24.1801C14.905 23.4609 19.1366 23.5259 25.6016 24.1951C26.0835 24.2454 26.5403 24.4351 26.9161 24.741C27.2919 25.0469 27.5703 25.4558 27.7172 25.9175C27.8642 26.3792 27.8734 26.8737 27.7436 27.3406C27.6138 27.8074 27.3508 28.2263 26.9866 28.5459C23.1741 31.8692 19.9991 33.6792 16.7725 33.6667C13.5366 33.6551 10.5016 31.8142 6.96746 28.5351C6.71442 28.2994 6.51271 28.014 6.37492 27.6969C6.23713 27.3797 6.16622 27.0375 6.16663 26.6917C6.16542 26.0704 6.39347 25.4705 6.8071 25.0069C7.22073 24.5433 7.79087 24.2486 8.4083 24.1792V24.1801Z"/>
<path d="M23.6666 13.6667C23.6666 15.4348 22.9643 17.1305 21.714 18.3807C20.4638 19.631 18.7681 20.3333 17 20.3333C15.2319 20.3333 13.5362 19.631 12.2859 18.3807C11.0357 17.1305 10.3333 15.4348 10.3333 13.6667C10.3333 11.8986 11.0357 10.2029 12.2859 8.95262C13.5362 7.70238 15.2319 7 17 7C18.7681 7 20.4638 7.70238 21.714 8.95262C22.9643 10.2029 23.6666 11.8986 23.6666 13.6667Z"/>
<path fill-rule="evenodd" clip-rule="evenodd" d="M17 18.6667C18.3261 18.6667 19.5978 18.1399 20.5355 17.2022C21.4732 16.2645 22 14.9927 22 13.6667C22 12.3406 21.4732 11.0688 20.5355 10.1311C19.5978 9.19345 18.3261 8.66667 17 8.66667C15.6739 8.66667 14.4021 9.19345 13.4644 10.1311C12.5268 11.0688 12 12.3406 12 13.6667C12 14.9927 12.5268 16.2645 13.4644 17.2022C14.4021 18.1399 15.6739 18.6667 17 18.6667ZM17 20.3333C18.7681 20.3333 20.4638 19.631 21.714 18.3807C22.9643 17.1305 23.6666 15.4348 23.6666 13.6667C23.6666 11.8986 22.9643 10.2029 21.714 8.95262C20.4638 7.70238 18.7681 7 17 7C15.2319 7 13.5362 7.70238 12.2859 8.95262C11.0357 10.2029 10.3333 11.8986 10.3333 13.6667C10.3333 15.4348 11.0357 17.1305 12.2859 18.3807C13.5362 19.631 15.2319 20.3333 17 20.3333Z"/>
</svg>