<svg width="22" height="24" viewBox="0 0 22 24" fill="none" xmlns="http://www.w3.org/2000/svg">
<path d="M6.11111 0C5.4628 0 4.84105 0.311193 4.38263 0.86512C3.92421 1.41905 3.66667 2.17033 3.66667 2.9537V8.86111H6.11111V2.9537H15.8889V7.38426H12.8333L17.1111 12.5532L21.3889 7.38426H18.3333V2.9537C18.3333 2.17033 18.0758 1.41905 17.6174 0.86512C17.1589 0.311193 16.5372 0 15.8889 0H6.11111ZM0 11.8148V14.7685H9.77778V11.8148H0ZM0 16.2454V19.1991H9.77778V16.2454H0ZM12.2222 16.2454V19.1991H22V16.2454H12.2222ZM0 20.6759V23.6296H9.77778V20.6759H0ZM12.2222 20.6759V23.6296H22V20.6759H12.2222Z" fill="#6C757D"/>
</svg>
