<svg width="25" height="22" viewBox="0 0 25 22" fill="none" xmlns="http://www.w3.org/2000/svg">
<path d="M2 2H3.82292L4.60417 5.125L2 2ZM4.60417 5.125L7.20833 15.5417H20.75L23.3542 5.125H4.60417Z" stroke="#6C757D" stroke-width="2.08333" stroke-linecap="round" stroke-linejoin="round"/>
<path d="M7.20837 20.75C8.07132 20.75 8.77087 20.0504 8.77087 19.1875C8.77087 18.3246 8.07132 17.625 7.20837 17.625C6.34543 17.625 5.64587 18.3246 5.64587 19.1875C5.64587 20.0504 6.34543 20.75 7.20837 20.75Z" stroke="#6C757D" stroke-width="2.08333" stroke-linecap="round" stroke-linejoin="round"/>
<path d="M20.75 20.75C21.6129 20.75 22.3125 20.0504 22.3125 19.1875C22.3125 18.3246 21.6129 17.625 20.75 17.625C19.8871 17.625 19.1875 18.3246 19.1875 19.1875C19.1875 20.0504 19.8871 20.75 20.75 20.75Z" stroke="#6C757D" stroke-width="2.08333" stroke-linecap="round" stroke-linejoin="round"/>
<path d="M11.8959 10.3333H16.0625" stroke="#6C757D" stroke-width="2.08333" stroke-linecap="round" stroke-linejoin="round"/>
<path d="M13.9791 12.4167V8.25" stroke="#6C757D" stroke-width="2.08333" stroke-linecap="round" stroke-linejoin="round"/>
</svg>
