<svg width="22" height="22" viewBox="0 0 22 22" fill="none" xmlns="http://www.w3.org/2000/svg">
<path d="M21.12 0H0.88C0.39325 0 0 0.39325 0 0.88V21.12C0 21.6068 0.39325 22 0.88 22H21.12C21.6068 22 22 21.6068 22 21.12V0.88C22 0.39325 21.6068 0 21.12 0ZM20.02 12.76H11.44V9.24H20.02V12.76ZM20.02 20.02H1.98V1.98H20.02V7.48H10.56C10.0732 7.48 9.68 7.87325 9.68 8.36V13.64C9.68 14.1267 10.0732 14.52 10.56 14.52H20.02V20.02ZM12.87 11C12.87 11.2917 12.9859 11.5715 13.1922 11.7778C13.3985 11.9841 13.6783 12.1 13.97 12.1C14.2617 12.1 14.5415 11.9841 14.7478 11.7778C14.9541 11.5715 15.07 11.2917 15.07 11C15.07 10.7083 14.9541 10.4285 14.7478 10.2222C14.5415 10.0159 14.2617 9.9 13.97 9.9C13.6783 9.9 13.3985 10.0159 13.1922 10.2222C12.9859 10.4285 12.87 10.7083 12.87 11Z" fill="#6C757D"/>
</svg>
