<svg width="26" height="20" viewBox="0 0 26 20" fill="none" xmlns="http://www.w3.org/2000/svg">
<path d="M23.5932 8.82247C24.1356 9.53195 24.1356 10.4897 23.5932 11.1981C21.8847 13.4284 17.7857 18.0206 13.0002 18.0206C8.21461 18.0206 4.11563 13.4284 2.40716 11.1981C2.14326 10.8584 2 10.4404 2 10.0103C2 9.5801 2.14326 9.16218 2.40716 8.82247C4.11563 6.59218 8.21461 2 13.0002 2C17.7857 2 21.8847 6.59218 23.5932 8.82247V8.82247Z" stroke="#6C757D" stroke-width="3.33333" stroke-linecap="round" stroke-linejoin="round"/>
<path d="M13.0002 13.4434C14.8962 13.4434 16.4332 11.9064 16.4332 10.0104C16.4332 8.11445 14.8962 6.57745 13.0002 6.57745C11.1043 6.57745 9.56726 8.11445 9.56726 10.0104C9.56726 11.9064 11.1043 13.4434 13.0002 13.4434Z" stroke="#6C757D" stroke-width="3.33333" stroke-linecap="round" stroke-linejoin="round"/>
</svg>
