<svg width="35" height="35" viewBox="0 0 35 35" fill="none" xmlns="http://www.w3.org/2000/svg">
<g clip-path="url(#clip0_582_3713)">
<g filter="url(#filter0_d_582_3713)">
<path d="M31.1111 4.86133H3.88889C3.37319 4.86133 2.87861 5.06619 2.51396 5.43084C2.14931 5.7955 1.94444 6.29007 1.94444 6.80577V28.1947C1.94444 28.7104 2.14931 29.2049 2.51396 29.5696C2.87861 29.9342 3.37319 30.1391 3.88889 30.1391H31.1111C31.6268 30.1391 32.1214 29.9342 32.486 29.5696C32.8507 29.2049 33.0556 28.7104 33.0556 28.1947V6.80577C33.0556 6.29007 32.8507 5.7955 32.486 5.43084C32.1214 5.06619 31.6268 4.86133 31.1111 4.86133ZM21.9333 25.2197L15.0306 14.9335L8.86667 23.9558L4.49167 20.0669L5.83333 18.5211L8.45833 20.8447L15.0306 11.2391L22.0208 21.6516L28.8264 12.6391L30.4792 13.8836L21.9333 25.2197Z" fill="#1E1C21"/>
</g>
</g>
<defs>
<filter id="filter0_d_582_3713" x="-6.05556" y="-3.13867" width="47.1111" height="41.2778" filterUnits="userSpaceOnUse" color-interpolation-filters="sRGB">
<feFlood flood-opacity="0" result="BackgroundImageFix"/>
<feColorMatrix in="SourceAlpha" type="matrix" values="0 0 0 0 0 0 0 0 0 0 0 0 0 0 0 0 0 0 127 0" result="hardAlpha"/>
<feOffset/>
<feGaussianBlur stdDeviation="4"/>
<feComposite in2="hardAlpha" operator="out"/>
<feColorMatrix type="matrix" values="0 0 0 0 0 0 0 0 0 0 0 0 0 0 0 0 0 0 0.5 0"/>
<feBlend mode="normal" in2="BackgroundImageFix" result="effect1_dropShadow_582_3713"/>
<feBlend mode="normal" in="SourceGraphic" in2="effect1_dropShadow_582_3713" result="shape"/>
</filter>
<clipPath id="clip0_582_3713">
<rect width="35" height="35" fill="white"/>
</clipPath>
</defs>
</svg>
