<svg width="219" height="90" viewBox="0 0 219 90" fill="none" xmlns="http://www.w3.org/2000/svg">
<rect x="47" y="18" width="124.167" height="55" rx="10" fill="#1E1C21"/>
<path d="M123.111 31.8613H95.8889C95.3732 31.8613 94.8786 32.0662 94.514 32.4308C94.1493 32.7955 93.9445 33.2901 93.9445 33.8058V55.1947C93.9445 55.7104 94.1493 56.2049 94.514 56.5696C94.8786 56.9342 95.3732 57.1391 95.8889 57.1391H123.111C123.627 57.1391 124.121 56.9342 124.486 56.5696C124.851 56.2049 125.056 55.7104 125.056 55.1947V33.8058C125.056 33.2901 124.851 32.7955 124.486 32.4308C124.121 32.0662 123.627 31.8613 123.111 31.8613ZM113.933 52.2197L107.031 41.9335L100.867 50.9558L96.4917 47.0669L97.8333 45.5211L100.458 47.8447L107.031 38.2391L114.021 48.6516L120.826 39.6391L122.479 40.8836L113.933 52.2197Z" fill="#E9ECEF"/>
</svg>
