<svg width="35" height="35" viewBox="0 0 35 35" fill="none" xmlns="http://www.w3.org/2000/svg">
<path d="M4.37499 13.125H1.45833V29.1667C1.45833 30.7854 2.75624 32.0833 4.37499 32.0833H27.7083V29.1667H4.37499V13.125Z" fill="#1E1C21"/>
<path d="M26.25 7.29183V4.37516C26.25 2.75641 24.9521 1.4585 23.3333 1.4585H17.5C15.8813 1.4585 14.5833 2.75641 14.5833 4.37516V7.29183H7.29167V23.3335C7.29167 24.9522 8.58959 26.2502 10.2083 26.2502H30.625C32.2438 26.2502 33.5417 24.9522 33.5417 23.3335V7.29183H26.25ZM17.5 4.37516H23.3333V7.29183H17.5V4.37516ZM17.5 21.8752V11.6668L25.5208 16.771L17.5 21.8752Z" fill="#1E1C21"/>
</svg>
