<svg width="219" height="90" viewBox="0 0 219 90" fill="none" xmlns="http://www.w3.org/2000/svg">
<rect x="48" y="16" width="124.167" height="55" rx="10" fill="#1E1C21"/>
<path d="M96.375 40.125H93.4583V56.1667C93.4583 57.7854 94.7563 59.0833 96.375 59.0833H119.708V56.1667H96.375V40.125Z" fill="#E9ECEF"/>
<path d="M118.25 34.2918V31.3752C118.25 29.7564 116.952 28.4585 115.333 28.4585H109.5C107.881 28.4585 106.583 29.7564 106.583 31.3752V34.2918H99.2917V50.3335C99.2917 51.9522 100.59 53.2502 102.208 53.2502H122.625C124.244 53.2502 125.542 51.9522 125.542 50.3335V34.2918H118.25ZM109.5 31.3752H115.333V34.2918H109.5V31.3752ZM109.5 48.8752V38.6668L117.521 43.771L109.5 48.8752Z" fill="#E9ECEF"/>
</svg>
