<svg width="35" height="35" viewBox="0 0 35 35" fill="none" xmlns="http://www.w3.org/2000/svg">
<path d="M32.0833 18.4724C31.9554 18.4732 31.8285 18.4487 31.7101 18.4003C31.5916 18.3519 31.4839 18.2806 31.3931 18.1905L17.5 4.28772L3.60695 18.1905C3.42096 18.3498 3.18172 18.433 2.93703 18.4235C2.69235 18.4141 2.46024 18.3127 2.28709 18.1395C2.11395 17.9664 2.01251 17.7343 2.00306 17.4896C1.99361 17.2449 2.07684 17.0056 2.23611 16.8197L16.8194 2.23633C17.0016 2.05525 17.248 1.95361 17.5049 1.95361C17.7617 1.95361 18.0081 2.05525 18.1903 2.23633L32.7736 16.8197C32.9074 16.9561 32.998 17.129 33.0341 17.3167C33.0701 17.5044 33.0501 17.6986 32.9764 17.8749C32.9028 18.0513 32.7788 18.202 32.6199 18.3083C32.4611 18.4145 32.2745 18.4716 32.0833 18.4724Z" fill="#1E1C21"/>
<path d="M17.5 7.57373L5.83333 19.2793V31.1112C5.83333 31.6269 6.03819 32.1215 6.40284 32.4862C6.7675 32.8508 7.26207 33.0557 7.77777 33.0557H14.5833V23.3335H20.4167V33.0557H27.2222C27.7379 33.0557 28.2325 32.8508 28.5971 32.4862C28.9618 32.1215 29.1667 31.6269 29.1667 31.1112V19.2112L17.5 7.57373Z" fill="#1E1C21"/>
</svg>
