<svg width="219" height="90" viewBox="0 0 219 90" fill="none" xmlns="http://www.w3.org/2000/svg">
<rect x="46" y="18" width="124.167" height="55" rx="10" fill="#1E1C21"/>
<path d="M123.083 45.4724C122.955 45.4732 122.829 45.4487 122.71 45.4003C122.592 45.3519 122.484 45.2806 122.393 45.1905L108.5 31.2877L94.6069 45.1905C94.4209 45.3498 94.1817 45.433 93.937 45.4235C93.6923 45.4141 93.4602 45.3127 93.2871 45.1395C93.1139 44.9664 93.0125 44.7343 93.003 44.4896C92.9936 44.2449 93.0768 44.0056 93.2361 43.8197L107.819 29.2363C108.002 29.0553 108.248 28.9536 108.505 28.9536C108.762 28.9536 109.008 29.0553 109.19 29.2363L123.774 43.8197C123.907 43.9561 123.998 44.129 124.034 44.3167C124.07 44.5044 124.05 44.6986 123.976 44.8749C123.903 45.0513 123.779 45.202 123.62 45.3083C123.461 45.4145 123.274 45.4716 123.083 45.4724V45.4724Z" fill="#E9ECEF"/>
<path d="M108.5 34.5737L96.8333 46.2793V58.1112C96.8333 58.6269 97.0382 59.1215 97.4029 59.4862C97.7675 59.8508 98.2621 60.0557 98.7778 60.0557H105.583V50.3335H111.417V60.0557H118.222C118.738 60.0557 119.233 59.8508 119.597 59.4862C119.962 59.1215 120.167 58.6269 120.167 58.1112V46.2112L108.5 34.5737Z" fill="#E9ECEF"/>
</svg>
