<svg width="35" height="35" viewBox="0 0 35 35" fill="none" xmlns="http://www.w3.org/2000/svg">
<g clip-path="url(#clip0_582_3587)">
<g filter="url(#filter0_d_582_3587)">
<path d="M32.0833 18.4724C31.9554 18.4732 31.8285 18.4487 31.7101 18.4003C31.5916 18.3519 31.4839 18.2806 31.393 18.1905L17.5 4.28772L3.60693 18.1905C3.42094 18.3498 3.1817 18.433 2.93702 18.4235C2.69233 18.4141 2.46022 18.3127 2.28708 18.1395C2.11393 17.9664 2.0125 17.7343 2.00304 17.4896C1.99359 17.2449 2.07682 17.0056 2.2361 16.8197L16.8194 2.23633C17.0016 2.05525 17.248 1.95361 17.5048 1.95361C17.7617 1.95361 18.0081 2.05525 18.1903 2.23633L32.7736 16.8197C32.9074 16.9561 32.998 17.129 33.034 17.3167C33.0701 17.5044 33.0501 17.6986 32.9764 17.8749C32.9028 18.0513 32.7788 18.202 32.6199 18.3083C32.4611 18.4145 32.2744 18.4716 32.0833 18.4724Z" fill="#1E1C21"/>
</g>
<g filter="url(#filter1_d_582_3587)">
<path d="M17.5 7.57373L5.83331 19.2793V31.1112C5.83331 31.6269 6.03817 32.1215 6.40283 32.4862C6.76748 32.8508 7.26206 33.0557 7.77776 33.0557H14.5833V23.3335H20.4166V33.0557H27.2222C27.7379 33.0557 28.2325 32.8508 28.5971 32.4862C28.9618 32.1215 29.1666 31.6269 29.1666 31.1112V19.2112L17.5 7.57373Z" fill="#1E1C21"/>
</g>
</g>
<defs>
<filter id="filter0_d_582_3587" x="-5.99768" y="-6.04639" width="47.0492" height="32.519" filterUnits="userSpaceOnUse" color-interpolation-filters="sRGB">
<feFlood flood-opacity="0" result="BackgroundImageFix"/>
<feColorMatrix in="SourceAlpha" type="matrix" values="0 0 0 0 0 0 0 0 0 0 0 0 0 0 0 0 0 0 127 0" result="hardAlpha"/>
<feOffset/>
<feGaussianBlur stdDeviation="4"/>
<feComposite in2="hardAlpha" operator="out"/>
<feColorMatrix type="matrix" values="0 0 0 0 0 0 0 0 0 0 0 0 0 0 0 0 0 0 0.5 0"/>
<feBlend mode="normal" in2="BackgroundImageFix" result="effect1_dropShadow_582_3587"/>
<feBlend mode="normal" in="SourceGraphic" in2="effect1_dropShadow_582_3587" result="shape"/>
</filter>
<filter id="filter1_d_582_3587" x="-2.16669" y="-0.42627" width="39.3333" height="41.4819" filterUnits="userSpaceOnUse" color-interpolation-filters="sRGB">
<feFlood flood-opacity="0" result="BackgroundImageFix"/>
<feColorMatrix in="SourceAlpha" type="matrix" values="0 0 0 0 0 0 0 0 0 0 0 0 0 0 0 0 0 0 127 0" result="hardAlpha"/>
<feOffset/>
<feGaussianBlur stdDeviation="4"/>
<feComposite in2="hardAlpha" operator="out"/>
<feColorMatrix type="matrix" values="0 0 0 0 0 0 0 0 0 0 0 0 0 0 0 0 0 0 0.5 0"/>
<feBlend mode="normal" in2="BackgroundImageFix" result="effect1_dropShadow_582_3587"/>
<feBlend mode="normal" in="SourceGraphic" in2="effect1_dropShadow_582_3587" result="shape"/>
</filter>
<clipPath id="clip0_582_3587">
<rect width="35" height="35" fill="white"/>
</clipPath>
</defs>
</svg>
